# xmcd
#
# Track frame offsets: 
#        150
#        11180
#        23861
#        33674
#        40636
#        53573
#        63860
#        75011
#        88256
#        99411
#        113174
#        124423
#        137875
#        150003
#        161361
#        173886
#        186448
#        196887
#        209521
#        223375
#        236749
#        246807
#        258908
#        272161
#        284105
#        296760
#        308391
#
# Disc length: 4286 seconds
#
# Revision: 0
# Processed by: cddbd v1.5.2PL0 Copyright (c) Steve Scherf et al.
# Submitted via: ExactAudioCopy v1.3
#
DISCID=8210bc1b
DTITLE=Jimmy Wakely - The Jimmy Wakely Collection 1940-53_CD1
DYEAR=2019
DGENRE=Country
TTITLE0=Cimarron Roll On 
TTITLE1=Too Late 
TTITLE2=I'll Never Let You Go (Little Darlin')
TTITLE3=Gone And Left Me Blues 
TTITLE4=There's A Star Spangled Banner Waving Somewhere 
TTITLE5=Standing Outside Of Heaven 
TTITLE6=I'm Sending You Red Roses
TTITLE7=Jimmy Wakely and The Sunshine Girls - You Can't Break The Chains
TTITLE7=Of Love
TTITLE8=Somebody's Rose
TTITLE9=Everyone Knew But Me 
TTITLE10=Too Many Sweethearts
TTITLE11=Song of the Sierras
TTITLE12=Where The Moon Plays Peek-A-Boo 
TTITLE13=Oklahoma Blues
TTITLE14=Signed, Sealed And Delivered
TTITLE15=Milk Cow Blues
TTITLE16=For The Sake Of Days Gone B
TTITLE17=One Has My Name (The Other Has My Heart)
TTITLE18=Walkin' The Sidewalks Of Shame
TTITLE19=Mine All Mine
TTITLE20=I Love You So Much It Hurts
TTITLE21=Forever More
TTITLE22=Moon Over Montana 
TTITLE23=Till The End Of The World
TTITLE24=Oklahoma Hills 
TTITLE25=Jimmy Wakely And Velma Williams - Someday You値l Call My Name 
TTITLE26=I Wish I Had A Nickel
EXTD=
EXTT0=
EXTT1=
EXTT2=
EXTT3=
EXTT4=
EXTT5=
EXTT6=
EXTT7=
EXTT8=
EXTT9=
EXTT10=
EXTT11=
EXTT12=
EXTT13=
EXTT14=
EXTT15=
EXTT16=
EXTT17=
EXTT18=
EXTT19=
EXTT20=
EXTT21=
EXTT22=
EXTT23=
EXTT24=
EXTT25=
EXTT26=
PLAYORDER=
